HIERARCHY
ROOT Hips
{
	OFFSET 0.000000 0.000000 0.000000
	CHANNELS 6 Xposition Yposition Zposition Xrotation Yrotation Zrotation
	JOINT LeftUpLeg_virtual
	{
		OFFSET 0.000000 0.000000 0.000000
		CHANNELS 3 Xrotation Yrotation Zrotation
		JOINT LeftUpLeg
		{
			OFFSET 13.026900 -6.336304 -1.092800
			CHANNELS 3 Xrotation Yrotation Zrotation
			JOINT LeftLeg
			{
				OFFSET 0.524474 -46.096886 9.782700
				CHANNELS 3 Xrotation Yrotation Zrotation
				JOINT LeftFoot
				{
					OFFSET -0.524474 -53.427422 -12.948200
					CHANNELS 3 Xrotation Yrotation Zrotation
					JOINT LeftToeBase
					{
						OFFSET 0.192200 -14.009700 16.364100
						CHANNELS 3 Xrotation Yrotation Zrotation
						JOINT LeftToe_End
						{
							OFFSET -1.784700 -0.561700 9.474800
							CHANNELS 3 Xrotation Yrotation Zrotation
							End Site
							{
								OFFSET 0 0 0
							}
						}
					}
				}
			}
		}
	}
	JOINT RightUpLeg_virtual
	{
		OFFSET 0.000000 0.000000 0.000000
		CHANNELS 3 Xrotation Yrotation Zrotation
		JOINT RightUpLeg
		{
			OFFSET -12.883000 -6.336304 -1.092800
			CHANNELS 3 Xrotation Yrotation Zrotation
			JOINT RightLeg
			{
				OFFSET -0.524587 -46.096825 9.782800
				CHANNELS 3 Xrotation Yrotation Zrotation
				JOINT RightFoot
				{
					OFFSET 0.524587 -53.427383 -12.948300
					CHANNELS 3 Xrotation Yrotation Zrotation
					JOINT RightToeBase
					{
						OFFSET -0.192200 -14.009700 16.364100
						CHANNELS 3 Xrotation Yrotation Zrotation
						JOINT RightToe_End
						{
							OFFSET 1.784700 -0.561700 9.474800
							CHANNELS 3 Xrotation Yrotation Zrotation
							End Site
							{
								OFFSET 0 0 0
							}
						}
					}
				}
			}
		}
	}
	JOINT Spine_virtual
	{
		OFFSET 0.000000 0.000000 0.000000
		CHANNELS 3 Xrotation Yrotation Zrotation
		JOINT Spine
		{
			OFFSET 0.072000 7.257294 -0.789700
			CHANNELS 3 Xrotation Yrotation Zrotation
			JOINT Spine1
			{
				OFFSET 0.000000 12.508769 -0.658067
				CHANNELS 3 Xrotation Yrotation Zrotation
				JOINT Spine1_split
				{
					OFFSET 0.000000 12.508769 -0.658067
					CHANNELS 3 Xrotation Yrotation Zrotation
					JOINT Spine2
					{
						OFFSET 0.000000 12.508769 -0.658067
						CHANNELS 3 Xrotation Yrotation Zrotation
						JOINT Neck_virtual
						{
							OFFSET 0.000000 0.000000 0.000000
							CHANNELS 3 Xrotation Yrotation Zrotation
							JOINT Neck
							{
								OFFSET 0.000000 14.033295 7.520400
								CHANNELS 3 Xrotation Yrotation Zrotation
								JOINT Head
								{
									OFFSET 0.000000 8.198502 5.703100
									CHANNELS 3 Xrotation Yrotation Zrotation
									JOINT HeadTop_End
									{
										OFFSET 0.000000 17.760803 13.332701
										CHANNELS 3 Xrotation Yrotation Zrotation
										End Site
										{
											OFFSET 0 0 0
										}
									}
								}
							}
						}
						JOINT LeftShoulder_virtual
						{
							OFFSET 0.000000 0.000000 0.000000
							CHANNELS 3 Xrotation Yrotation Zrotation
							JOINT LeftShoulder
							{
								OFFSET 6.292450 5.785301 -0.669000
								CHANNELS 3 Xrotation Yrotation Zrotation
								JOINT LeftShoulder_split
								{
									OFFSET 6.292450 5.785301 -0.669000
									CHANNELS 3 Xrotation Yrotation Zrotation
									JOINT LeftArm
									{
										OFFSET 13.907140 -6.093903 1.965100
										CHANNELS 3 Xrotation Yrotation Zrotation
										JOINT LeftForeArm
										{
											OFFSET 34.140198 0.000000 0.000000
											CHANNELS 3 Xrotation Yrotation Zrotation
											JOINT LeftHand
											{
												OFFSET 40.960209 0.000000 0.000000
												CHANNELS 3 Xrotation Yrotation Zrotation
												End Site
												{
													OFFSET 0 0 0
												}
											}
										}
									}
								}
							}
						}
						JOINT RightShoulder_virtual
						{
							OFFSET 0.000000 0.000000 0.000000
							CHANNELS 3 Xrotation Yrotation Zrotation
							JOINT RightShoulder
							{
								OFFSET -6.292450 5.785301 -0.669000
								CHANNELS 3 Xrotation Yrotation Zrotation
								JOINT RightShoulder_split
								{
									OFFSET -6.292450 5.785301 -0.669000
									CHANNELS 3 Xrotation Yrotation Zrotation
									JOINT RightArm
									{
										OFFSET -13.907140 -6.093903 1.965100
										CHANNELS 3 Xrotation Yrotation Zrotation
										JOINT RightForeArm
										{
											OFFSET -34.140198 0.000000 0.000000
											CHANNELS 3 Xrotation Yrotation Zrotation
											JOINT RightHand
											{
												OFFSET -40.960209 0.000000 0.000000
												CHANNELS 3 Xrotation Yrotation Zrotation
												End Site
												{
													OFFSET 0 0 0
												}
											}
										}
									}
								}
							}
						}
					}
				}
			}
		}
	}
}
MOTION
Frames: 10
Frame Time: 0.03333333
-7.219092 95.344421 -1.630192 0.000000 0.000000 0.000000 27.856547 -46.041557 11.135497 -85.860566 -1.229625 8.077837 58.214706 0.271858 1.691047 16.829405 -2.506135 -8.739922 -3.989974 1.337072 0.228458 0.000000 0.000000 0.000000 26.279868 -46.057260 9.917669 -31.996305 -11.891055 -19.001581 49.751730 -12.293215 6.135949 -14.130657 -12.040561 26.229815 -4.963160 -0.384498 2.796346 0.000000 0.000000 0.000000 30.018644 -46.542651 11.908880 -1.118414 7.149124 -1.663249 -1.408170 2.405524 0.357204 0.958846 -1.004698 0.343053 0.000000 0.000000 0.000000 0.520087 0.088749 1.163619 10.278989 6.335104 -7.664162 -3.050300 20.154961 11.347844 0.000000 0.000000 0.000000 -2.381171 1.110062 0.868468 3.213524 2.565933 -9.240282 1.039644 4.830474 1.457469 -52.775786 -28.496406 -47.037173 1.878340 -70.964805 3.024584 0.000000 0.000000 0.000000 -2.166123 0.099348 0.710526 -12.745831 -1.015401 -2.769489 -8.319333 -0.565052 -2.007266 -106.809788 37.140301 126.106575 -4.699980 24.974529 2.297402 0.000000 0.000000 0.000000 
-6.287708 96.023689 -6.761734 0.000000 0.000000 0.000000 28.121738 -44.460672 10.207527 -83.569577 -1.385213 6.828094 61.074951 -0.207574 2.427637 13.918127 -3.131020 -9.533233 -4.944551 0.870067 1.198931 0.000000 0.000000 0.000000 26.546480 -45.887584 9.526703 -31.855080 -13.521855 -17.162344 47.785889 -11.477128 5.474577 -15.724427 -11.294643 26.723382 -3.196635 0.090646 1.803919 0.000000 0.000000 0.000000 31.671720 -46.492879 12.349201 -1.420912 7.367880 -1.308800 -1.416384 2.549478 0.296396 1.918446 -0.951685 0.461730 0.000000 0.000000 0.000000 0.583157 0.195004 1.132442 10.489960 6.114715 -7.486731 -2.824919 20.159580 11.282938 0.000000 0.000000 0.000000 -2.185070 1.165422 0.788806 3.120996 2.229155 -9.570671 1.678278 4.871738 1.216066 -52.268969 -28.831786 -46.821777 1.805737 -70.438136 2.882551 0.000000 0.000000 0.000000 -1.952207 0.297604 0.794898 -12.762109 -1.122299 -2.497528 -8.577698 -0.285693 -1.968815 -106.901360 37.779484 126.347858 -4.408596 23.694106 2.235926 0.000000 0.000000 0.000000 
-5.032446 96.476685 -14.122952 0.000000 0.000000 0.000000 28.628318 -44.539602 9.539357 -79.604885 -0.666043 5.196707 63.220272 -1.180205 3.632114 9.254090 -4.866985 -9.469242 -7.202443 0.252037 2.488819 0.000000 0.000000 0.000000 27.358258 -47.411550 9.712824 -33.356089 -16.060088 -15.309678 46.329849 -10.206388 5.092760 -16.134119 -9.768152 27.465997 -4.091735 0.453067 0.095816 0.000000 0.000000 0.000000 33.690352 -47.399805 13.016614 -1.502680 7.948746 -0.683362 -1.413137 3.026041 0.303686 2.313228 -0.943530 0.577155 0.000000 0.000000 0.000000 0.674391 0.608869 1.115760 10.614767 5.667628 -7.000732 -2.422280 19.457375 11.446009 0.000000 0.000000 0.000000 -2.078310 1.549500 0.763374 2.950610 1.618305 -9.963689 1.999039 4.633501 1.203702 -51.809761 -29.723525 -46.583932 1.355603 -70.643745 2.433315 0.000000 0.000000 0.000000 -1.640785 0.809551 0.922226 -12.916304 -1.500189 -1.790479 -8.825133 -0.162404 -2.207159 -106.912459 38.384987 126.255637 -3.977617 22.505400 1.975275 0.000000 0.000000 0.000000 
-4.017406 96.313309 -22.374767 0.000000 0.000000 0.000000 29.614928 -46.509347 9.631228 -75.532453 0.384166 4.023603 64.223934 -2.596989 4.686945 4.272240 -7.357600 -8.222476 -9.597222 -0.372027 3.667526 0.000000 0.000000 0.000000 28.462336 -50.395492 10.431729 -35.567691 -18.693830 -14.132610 46.510347 -8.693479 5.127220 -15.768699 -8.473046 27.847168 -6.483526 0.674983 -1.669137 0.000000 0.000000 0.000000 35.603345 -49.143276 13.843380 -1.348194 8.770621 0.071272 -1.445210 3.700945 0.374146 1.747293 -0.835543 0.631950 0.000000 0.000000 0.000000 0.748101 1.212602 1.131386 10.566233 5.114108 -6.314996 -1.984527 18.303672 11.717534 0.000000 0.000000 0.000000 -2.054617 2.133593 0.792767 2.755434 0.910649 -10.306586 2.086653 4.320432 1.229629 -51.527002 -30.941286 -46.203726 0.518567 -71.341954 1.653084 0.000000 0.000000 0.000000 -1.313226 1.508199 1.085118 -13.149880 -2.030039 -0.949292 -9.043740 -0.239703 -2.476287 -106.810280 38.683613 125.855497 -3.541892 21.800311 1.619201 0.000000 0.000000 0.000000 
-3.499308 95.251305 -30.364491 0.000000 0.000000 0.000000 30.978910 -49.698847 10.475780 -72.656984 1.361741 3.919662 64.836424 -3.895573 5.069881 0.526798 -9.552955 -5.467285 -10.333704 -0.706767 4.033503 0.000000 0.000000 0.000000 29.778508 -54.093199 11.517197 -36.308913 -20.301735 -13.774448 48.038329 -7.659356 5.346623 -15.220066 -8.938942 26.695560 -8.227224 0.652485 -2.892579 0.000000 0.000000 0.000000 36.562911 -51.231821 14.309683 -0.924311 9.689347 0.758434 -1.518229 4.383468 0.513132 1.011799 -0.523808 0.742076 0.000000 0.000000 0.000000 0.754716 1.808481 1.198484 10.375811 4.536019 -5.577765 -1.636516 17.097990 11.939284 0.000000 0.000000 0.000000 -2.076157 2.705020 0.861615 2.613653 0.338873 -10.686734 1.977095 4.176735 1.253601 -51.461528 -32.189322 -45.663547 -0.646456 -72.004558 0.579997 0.000000 0.000000 0.000000 -1.063977 2.209021 1.273960 -13.376148 -2.576784 -0.258514 -8.795209 -0.416823 -2.652766 -106.547836 38.461724 125.216082 -3.227848 21.786878 1.308121 0.000000 0.000000 0.000000 
-3.502806 93.365341 -38.005604 0.000000 0.000000 0.000000 32.288712 -53.182926 11.745159 -72.018525 1.836734 5.233912 65.375142 -4.480425 4.435949 -1.824611 -10.443197 -1.108100 -8.399671 -0.547625 3.343599 0.000000 0.000000 0.000000 30.842484 -57.524509 12.625412 -34.005637 -19.945503 -14.357201 49.865183 -7.028192 5.356099 -14.253605 -11.714944 24.469185 -8.437840 0.375407 -3.302877 0.000000 0.000000 0.000000 36.607273 -53.301068 14.356709 -0.320967 10.533238 1.280830 -1.655847 4.862766 0.690370 0.840482 -0.078608 0.559895 0.000000 0.000000 0.000000 0.644089 2.235538 1.304818 10.111835 4.024495 -4.921143 -1.347329 16.158935 11.986027 0.000000 0.000000 0.000000 -2.136599 3.088640 0.932613 2.558152 -0.004801 -11.071125 1.853980 4.087175 1.310473 -51.665972 -33.200709 -45.125216 -1.867664 -72.159555 -0.549362 0.000000 0.000000 0.000000 -0.932113 2.743535 1.481180 -13.530159 -2.953219 0.060214 -8.129652 -0.564882 -2.746545 -106.173023 37.712162 124.453437 -3.102686 22.319282 1.167806 0.000000 0.000000 0.000000 
-3.704779 90.859459 -45.210293 0.000000 0.000000 0.000000 33.248729 -56.464026 13.178703 -73.477952 1.490282 7.886110 65.626247 -4.193527 2.888269 -3.655396 -10.073504 3.502983 -5.032725 -0.092477 1.841280 0.000000 0.000000 0.000000 31.744424 -60.511829 13.797272 -28.819877 -17.218439 -16.078299 49.934079 -6.328199 4.634361 -12.212651 -16.263604 22.961955 -7.527521 -0.044291 -2.790361 0.000000 0.000000 0.000000 36.040344 -55.419793 14.342135 0.344671 11.253891 1.412413 -1.805750 5.056230 0.835912 1.254461 0.318585 0.491494 0.000000 0.000000 0.000000 0.445752 2.428215 1.454518 9.911539 3.660422 -4.446378 -1.048221 15.673151 11.841035 0.000000 0.000000 0.000000 -2.175522 3.207005 1.004613 2.603104 0.028172 -11.428795 1.832820 3.825885 1.323246 -52.217653 -33.974044 -44.900004 -2.723096 -71.831296 -1.327628 0.000000 0.000000 0.000000 -0.982047 2.999267 1.654829 -13.613233 -2.976058 0.024948 -7.281909 -0.743542 -2.750785 -105.837183 36.540180 123.587765 -3.151382 22.970071 1.250407 0.000000 0.000000 0.000000 
-3.940721 88.302811 -51.338558 0.000000 0.000000 0.000000 33.544336 -59.111660 14.351103 -76.189326 -0.078364 11.232554 66.491420 -3.865368 1.361530 -4.788374 -9.000471 5.998217 -2.467209 0.386817 0.156721 0.000000 0.000000 0.000000 32.919743 -62.813548 15.352804 -21.371513 -12.448492 -19.073674 46.491175 -5.028976 2.807854 -8.561174 -21.546865 23.940312 -5.950594 -0.436649 -1.680014 0.000000 0.000000 0.000000 35.279341 -57.358146 14.588116 0.986095 11.856048 1.062308 -1.932684 5.008720 0.910603 1.555274 0.357754 0.579538 0.000000 0.000000 0.000000 0.144709 2.406040 1.599616 9.779789 3.475540 -4.207817 -0.650903 15.648844 11.548097 0.000000 0.000000 0.000000 -2.214119 3.121884 1.064179 2.726041 0.437521 -11.741700 1.648773 3.494433 1.383658 -53.009433 -34.520080 -45.191397 -3.066033 -71.269732 -1.595780 0.000000 0.000000 0.000000 -1.208268 3.008440 1.740878 -13.666865 -2.632928 -0.183863 -6.326663 -1.107499 -2.669267 -105.821883 35.217709 122.757542 -3.314225 23.337472 1.522454 0.000000 0.000000 0.000000 
-4.126957 86.148514 -56.725002 0.000000 0.000000 0.000000 33.451009 -61.368095 15.456592 -79.004887 -3.012616 14.315805 67.876596 -4.274301 0.715022 -4.942496 -8.077620 4.975087 -1.659858 0.794933 -0.961282 0.000000 0.000000 0.000000 34.658566 -64.510638 17.602446 -13.024119 -7.044355 -22.925585 39.546164 -2.924098 0.304220 -3.538811 -26.196641 27.671567 -3.973708 -0.627063 -0.440584 0.000000 0.000000 0.000000 34.963516 -59.244139 15.614704 1.487461 12.349005 0.344752 -2.071597 4.868068 0.888541 1.457634 0.149767 0.468468 0.000000 0.000000 0.000000 -0.291415 2.311599 1.652873 9.702456 3.418678 -4.218264 -0.034070 15.898203 11.205785 0.000000 0.000000 0.000000 -2.271299 3.013672 1.074939 2.882183 1.064206 -11.948031 1.399084 3.137809 1.461579 -53.887980 -34.769631 -45.982988 -2.964739 -70.875261 -1.422333 0.000000 0.000000 0.000000 -1.533320 2.923812 1.693605 -13.719801 -2.078729 -0.395134 -5.517344 -1.692608 -2.460969 -106.249193 34.190503 122.109603 -3.457922 23.246349 1.854684 0.000000 0.000000 0.000000 
-4.215394 84.500404 -61.433453 0.000000 0.000000 0.000000 33.587151 -63.737249 17.148023 -80.747104 -6.778183 16.829204 68.926519 -5.477585 1.265855 -3.723851 -7.802966 0.724233 -2.390652 1.054148 -1.144145 0.000000 0.000000 0.000000 36.834005 -65.914044 20.562310 -5.434113 -2.322462 -26.684957 31.077535 -0.252911 -2.051638 1.045618 -29.589387 32.575873 -1.831128 -0.608490 0.532453 0.000000 0.000000 0.000000 35.212907 -61.147631 17.469503 1.842480 12.759898 -0.575981 -2.230720 4.837271 0.747609 1.224991 -0.382500 0.515175 0.000000 0.000000 0.000000 -0.771381 2.346384 1.552994 9.667469 3.415222 -4.416963 0.861488 16.164712 10.931596 0.000000 0.000000 0.000000 -2.317495 3.054399 1.013879 3.038619 1.793976 -12.048852 1.131614 2.624799 1.506892 -54.622402 -34.593440 -47.070153 -2.652814 -71.023872 -1.039324 0.000000 0.000000 0.000000 -1.904503 2.926628 1.502882 -13.782278 -1.513554 -0.514630 -4.896732 -2.293475 -2.167647 -106.956616 33.676637 121.676569 -3.475294 22.880259 2.120614 0.000000 0.000000 0.000000 
